<svg width="1280" height="113" viewBox="0 0 1280 113" fill="none" xmlns="http://www.w3.org/2000/svg">
<path fill-rule="evenodd" clip-rule="evenodd" d="M0 45.6517L42.6667 54.6315C85.3333 63.6112 170.667 81.5708 256 77.0809C341.333 72.591 426.667 45.6517 512 27.6921C597.333 9.73258 682.667 0.752808 768 0.752808C853.333 0.752808 938.667 9.73258 1024 25.4472C1109.33 41.1618 1194.67 63.6112 1237.33 74.836L1280 86.0607V113H1237.33C1194.67 113 1109.33 113 1024 113C938.667 113 853.333 113 768 113C682.667 113 597.333 113 512 113C426.667 113 341.333 113 256 113C170.667 113 85.3333 113 42.6667 113H0V45.6517Z" fill="#3B13B0" fill-opacity="0.8"/>
</svg>
